<svg width="142.8" height="106.8" clip-rule="evenodd" fill-rule="evenodd" stroke-linecap="round" stroke-linejoin="round" version="1.1" viewBox="0 0 142.8 106.8" xmlns="http://www.w3.org/2000/svg"><g transform="translate(.5765 .586)"><path d="m9.553-.5859c-1.604-.0002801-2.942 1.226-3.082 2.824l-7.035 80.41c-.1585 1.808 1.267 3.364 3.082 3.363h9.727c-.1365.6746-.2496 1.356-.3106 2.053-.8638 9.873 6.713 18.18 16.6 18.18 9.888 0 18.44-7.875 19.31-17.75.07367-.8421.07125-1.67.0293-2.488h45.43c-.1381.6741-.2535 1.356-.3144 2.053-.8643 9.879 6.713 18.19 16.61 18.19 9.895 1e-5 18.45-7.873 19.31-17.75.0917-1.048.0677-2.073-.0234-3.078h6.957v.002c.5535.0121.7936.009 1.484.02734 2.027.1067 3.333.1602 3.92.1602.3201 0 .5339-.0535.6406-.1602.16-.1067.2402-.2403.2402-.4004.0533-.2134.0801-.5589.0801-1.039 0-.5335-.0534-.881-.1602-1.041-.1067-.16-.374-.2402-.8008-.2402h-.1094l.8594-9.814c1.218-13.92-3.154-27.35-12.19-37.26l-3.574-3.916c-.4745-.5198-1.146-.8161-1.85-.8164h-21.42l2.463-28.15c.1584-1.808-1.266-3.362-3.08-3.363z" clip-rule="nonzero" color="#000000" color-rendering="auto" dominant-baseline="auto" fill-rule="nonzero" image-rendering="auto" shape-rendering="auto" solid-color="#000000" stop-color="#000000" style="font-feature-settings:normal;font-variant-alternates:normal;font-variant-caps:normal;font-variant-east-asian:normal;font-variant-ligatures:normal;font-variant-numeric:normal;font-variant-position:normal;font-variation-settings:normal;inline-size:0;isolation:auto;mix-blend-mode:normal;shape-margin:0;shape-padding:0;text-decoration-color:#000000;text-decoration-line:none;text-decoration-style:solid;text-indent:0;text-orientation:mixed;text-transform:none;white-space:normal"/></g><path d="m12.96 6.186-6.494 74.23h86.58l6.494-74.23z" fill="#fff"/><g transform="matrix(.9936 0 0 .9936 -225.8 -65.17)"><g aria-label="F"><path d="m259.3 135.6q0-.8054.2416-.9665.3222-.2416 1.289-.2416h3.383q0-.1611.8054-5.477.8859-5.396 1.772-11.19.8859-5.879 1.852-12.56.9665-6.685 1.611-11.84.6443-5.235.6443-6.926l-.0805-.5638h-4.349q-1.772 0-1.772-1.45 0-1.369 1.208-1.369l3.785.1611q3.705.08054 5.396.08054 2.255 0 8.698-.08054 6.524-.1611 8.134-.1611 5.235 0 5.316-.7249v-.08054q.1611-1.208 1.289-1.208 1.047 0 1.289.1611.3222.1611.3222.9665 0 .1611-.1611 1.53t-.3222 3.785q-.1611 2.336-.2416 4.752 0 .6443-.3222.8859-.2416.1611-1.208.1611-.4027 0-.7249-.08054-.2416-.08054-.4027-.08054-.0805-.08054-.1611-.3222-.0805-.3222-.0805-.4027 0-.08054 0-.4832 0-.8859.4027-5.718-2.899-.4832-18.69-.4832-.3222.9665-3.222 21.5-.0805.3222-.0805.7248.7248.3222.9665.3222h12.56q3.383 0 3.544-.8859l.6443-3.463q.0805-.7248 1.53-.7248 1.289 0 1.289.7248 0 .1611-1.128 6.282-.2416 1.128-.4832 2.497-.1611 1.289-.3222 2.497-.1611 1.128-.1611 1.369-.0805.7248-1.289.7248-.4832 0-.8054 0-.2416-.0805-.5638-.2416-.2416-.1611-.2416-.5638.0805-.3222.2416-1.53.2416-1.208.3222-2.094.1611-.9665.1611-1.047 0-.8859-3.785-.8859h-11.52q-.8859 0-1.047.0805t-.3222.5638q-.1611 1.047-1.53 10.47-1.289 9.423-1.611 11.92-.0805.4832.4027.4832h5.396q.6443 0 .8054.2416.1611.2416.1611 1.047 0 .7248-.0805 1.047 0 .2416-.2416.4027-.1611.1611-.6443.1611-.8859 0-3.946-.1611-2.98-.0805-4.269-.0805-1.289 0-4.43.0805-3.141.1611-4.027.1611-.8054 0-1.047-.3222-.1611-.3222-.1611-1.369z"/></g></g></svg>
