<?xml version="1.0" encoding="UTF-8" standalone="no"?>
<!DOCTYPE svg PUBLIC "-//W3C//DTD SVG 1.1//EN" "http://www.w3.org/Graphics/SVG/1.1/DTD/svg11.dtd">
<svg width="100%" height="100%" viewBox="0 0 142 107" version="1.1" xmlns="http://www.w3.org/2000/svg" xmlns:xlink="http://www.w3.org/1999/xlink" xml:space="preserve" xmlns:serif="http://www.serif.com/" style="fill-rule:evenodd;clip-rule:evenodd;stroke-linecap:round;stroke-linejoin:round;">
    <g transform="matrix(1,0,0,1,-611.049,-463.498)">
        <g transform="matrix(1,0,0,1,194.561,171.385)">
            <g transform="matrix(6.18575,0,0,6.18575,412.802,276.056)">
                <rect x="1" y="3" width="15" height="13" style="fill:none;stroke:black;stroke-width:0.81px;"/>
            </g>
        </g>
        <g transform="matrix(1,0,0,1,194.561,171.385)">
            <g transform="matrix(0.993636,0,0,0.993636,187.451,226.346)">
                <g transform="matrix(80.5387,0,0,80.5387,257.924,136.834)">
                    <path d="M0.017,-0.015C0.017,0.002 0.018,0.006 0.032,0.006C0.055,0.006 0.107,0.003 0.137,0.003C0.167,0.003 0.216,0.006 0.239,0.006C0.251,0.006 0.251,0.001 0.251,-0.014C0.251,-0.026 0.251,-0.03 0.239,-0.03L0.172,-0.03C0.167,-0.03 0.166,-0.032 0.167,-0.036C0.172,-0.08 0.203,-0.298 0.206,-0.314C0.208,-0.322 0.208,-0.322 0.223,-0.322L0.366,-0.322C0.409,-0.322 0.413,-0.318 0.413,-0.311C0.413,-0.308 0.406,-0.266 0.404,-0.253C0.403,-0.243 0.416,-0.243 0.424,-0.243C0.431,-0.243 0.439,-0.245 0.44,-0.252C0.442,-0.265 0.446,-0.299 0.452,-0.331C0.459,-0.369 0.466,-0.399 0.466,-0.409C0.466,-0.417 0.456,-0.418 0.45,-0.418C0.443,-0.418 0.432,-0.418 0.431,-0.409L0.423,-0.366C0.421,-0.357 0.399,-0.355 0.379,-0.355L0.223,-0.355C0.21,-0.355 0.211,-0.355 0.211,-0.359C0.211,-0.361 0.211,-0.364 0.212,-0.368C0.217,-0.403 0.245,-0.611 0.252,-0.635C0.352,-0.635 0.466,-0.632 0.484,-0.629C0.483,-0.617 0.479,-0.563 0.479,-0.558C0.479,-0.547 0.478,-0.541 0.496,-0.541C0.512,-0.541 0.515,-0.544 0.515,-0.554C0.517,-0.623 0.524,-0.671 0.524,-0.679C0.524,-0.693 0.52,-0.693 0.504,-0.693C0.495,-0.693 0.49,-0.692 0.488,-0.678C0.487,-0.669 0.49,-0.668 0.422,-0.668C0.379,-0.668 0.266,-0.665 0.213,-0.665C0.178,-0.665 0.106,-0.668 0.099,-0.668C0.09,-0.668 0.084,-0.664 0.084,-0.651C0.084,-0.634 0.094,-0.633 0.106,-0.633L0.16,-0.633C0.16,-0.633 0.161,-0.63 0.161,-0.626C0.161,-0.55 0.084,-0.07 0.078,-0.03L0.036,-0.03C0.02,-0.03 0.017,-0.029 0.017,-0.015Z" style="fill-rule:nonzero;"/>
                </g>
            </g>
        </g>
        <g transform="matrix(1,0,0,1,194.561,171.385)">
            <g transform="matrix(6.18575,0,0,6.18575,412.802,276.056)">
                <path d="M16,8L20,8C20,8 20.263,8.263 20.633,8.633C22.148,10.148 23,12.204 23,14.348L23,16L16,16L16,8Z" style="fill-rule:nonzero;stroke:black;stroke-width:0.81px;"/>
            </g>
        </g>
        <g transform="matrix(1,0,0,1,194.561,171.385)">
            <g transform="matrix(3.8821,0,0,3.8821,11.4031,219.603)">
                <rect x="130.321" y="29.096" width="5.436" height="4.157"/>
            </g>
        </g>
        <g transform="matrix(1,0,0,1,194.561,171.385)">
            <g transform="matrix(1,0,0,1,193.303,93.5447)">
                <path d="M268.027,281.483C268.647,283.155 268.985,284.963 268.985,286.849C268.985,295.384 262.056,302.314 253.521,302.314C244.986,302.314 238.056,295.384 238.056,286.849C238.056,284.963 238.395,283.155 239.014,281.483L268.027,281.483Z" style="stroke:black;stroke-width:5px;"/>
            </g>
        </g>
        <g transform="matrix(1,0,0,1,194.561,171.385)">
            <g transform="matrix(6.18575,0,0,6.18575,413.439,265.957)">
                <circle cx="18.5" cy="18.5" r="2.5" style="stroke:black;stroke-width:0.81px;"/>
            </g>
        </g>
    </g>
</svg>
