<?xml version="1.0" encoding="UTF-8"?>
<svg clip-rule="evenodd" fill-rule="evenodd" stroke-linecap="round" stroke-linejoin="round" version="1.1" viewBox="0 0 142 107" xml:space="preserve" xmlns="http://www.w3.org/2000/svg">
    <g transform="translate(-215.29 -465.82)">
        <g transform="translate(193.34 1.2198)">
            <g transform="matrix(6.1858 0 0 6.1858 18.267 448.55)">
                <rect x="1" y="3" width="15" height="13" stroke="#000" stroke-width=".81px"/>
            </g>
        
        
            <g transform="matrix(.99364 0 0 .99364 -207.08 398.84)">
                <g transform="matrix(80.539 0 0 80.539 257.92 136.83)">
                    <path d="m0.017-0.015c0 0.017 1e-3 0.021 0.015 0.021 0.023 0 0.075-3e-3 0.105-3e-3s0.079 3e-3 0.102 3e-3c0.012 0 0.012-5e-3 0.012-0.02 0-0.012 0-0.016-0.012-0.016h-0.067c-5e-3 0-6e-3 -2e-3 -5e-3 -6e-3 5e-3 -0.044 0.036-0.262 0.039-0.278 2e-3 -8e-3 2e-3 -8e-3 0.017-8e-3h0.143c0.043 0 0.047 4e-3 0.047 0.011 0 3e-3 -7e-3 0.045-9e-3 0.058-1e-3 0.01 0.012 0.01 0.02 0.01 7e-3 0 0.015-2e-3 0.016-9e-3 2e-3 -0.013 6e-3 -0.047 0.012-0.079 7e-3 -0.038 0.014-0.068 0.014-0.078 0-8e-3 -0.01-9e-3 -0.016-9e-3 -7e-3 0-0.018 0-0.019 9e-3l-8e-3 0.043c-2e-3 9e-3 -0.024 0.011-0.044 0.011h-0.156c-0.013 0-0.012 0-0.012-4e-3 0-2e-3 0-5e-3 1e-3 -9e-3 5e-3 -0.035 0.033-0.243 0.04-0.267 0.1 0 0.214 3e-3 0.232 6e-3 -1e-3 0.012-5e-3 0.066-5e-3 0.071 0 0.011-1e-3 0.017 0.017 0.017 0.016 0 0.019-3e-3 0.019-0.013 2e-3 -0.069 9e-3 -0.117 9e-3 -0.125 0-0.014-4e-3 -0.014-0.02-0.014-9e-3 0-0.014 1e-3 -0.016 0.015-1e-3 9e-3 2e-3 0.01-0.066 0.01-0.043 0-0.156 3e-3 -0.209 3e-3 -0.035 0-0.107-3e-3 -0.114-3e-3 -9e-3 0-0.015 4e-3 -0.015 0.017 0 0.017 0.01 0.018 0.022 0.018h0.054s1e-3 3e-3 1e-3 7e-3c0 0.076-0.077 0.556-0.083 0.596h-0.042c-0.016 0-0.019 1e-3 -0.019 0.015z" fill="#fff" fill-rule="nonzero"/>
                </g>
            </g>
        
        
            <g transform="matrix(6.1858 0 0 6.1858 18.267 448.55)">
                <path d="m16 8h4l0.633 0.633c1.515 1.515 2.367 3.571 2.367 5.715v1.652h-7v-8z" fill-rule="nonzero" stroke="#000" stroke-width=".81px"/>
            </g>
        
        
            <g transform="matrix(3.8821 0 0 3.8821 -383.13 392.09)">
                <rect x="130.32" y="29.096" width="5.436" height="4.157"/>
            </g>
        
        
            <g transform="matrix(6.1858 0 0 6.1858 18.267 438.45)">
                <circle cx="5.5" cy="18.5" r="2.5" stroke="#000" stroke-width=".81px"/>
            </g>
        
        
            <g transform="matrix(6.1858 0 0 6.1858 18.903 438.45)">
                <circle cx="18.5" cy="18.5" r="2.5" stroke="#000" stroke-width=".81px"/>
            </g>
        </g>
    </g>
</svg>
