<?xml version="1.0" encoding="UTF-8"?>
<svg clip-rule="evenodd" fill-rule="evenodd" stroke-linecap="round" stroke-linejoin="round" version="1.1" viewBox="0 0 476 108" xml:space="preserve" xmlns="http://www.w3.org/2000/svg">
    <g transform="translate(-19.056 -298.71)">
        <g transform="translate(4.7269 334.54)">
            <g transform="matrix(.99364 0 0 .99364 -81.408 -91.715)">
                <g transform="matrix(96.615 0 0 96.615 257.92 136.83)">
                    <path d="m0.017-0.015c0 0.017 1e-3 0.021 0.015 0.021 0.023 0 0.075-3e-3 0.105-3e-3s0.079 3e-3 0.102 3e-3c0.012 0 0.012-5e-3 0.012-0.02 0-0.012 0-0.016-0.012-0.016h-0.067c-5e-3 0-6e-3 -2e-3 -5e-3 -6e-3 5e-3 -0.044 0.036-0.262 0.039-0.278 2e-3 -8e-3 2e-3 -8e-3 0.017-8e-3h0.143c0.043 0 0.047 4e-3 0.047 0.011 0 3e-3 -7e-3 0.045-9e-3 0.058-1e-3 0.01 0.012 0.01 0.02 0.01 7e-3 0 0.015-2e-3 0.016-9e-3 2e-3 -0.013 6e-3 -0.047 0.012-0.079 7e-3 -0.038 0.014-0.068 0.014-0.078 0-8e-3 -0.01-9e-3 -0.016-9e-3 -7e-3 0-0.018 0-0.019 9e-3l-8e-3 0.043c-2e-3 9e-3 -0.024 0.011-0.044 0.011h-0.156c-0.013 0-0.012 0-0.012-4e-3 0-2e-3 0-5e-3 1e-3 -9e-3 5e-3 -0.035 0.033-0.243 0.04-0.267 0.1 0 0.214 3e-3 0.232 6e-3 -1e-3 0.012-5e-3 0.066-5e-3 0.071 0 0.011-1e-3 0.017 0.017 0.017 0.016 0 0.019-3e-3 0.019-0.013 2e-3 -0.069 9e-3 -0.117 9e-3 -0.125 0-0.014-4e-3 -0.014-0.02-0.014-9e-3 0-0.014 1e-3 -0.016 0.015-1e-3 9e-3 2e-3 0.01-0.066 0.01-0.043 0-0.156 3e-3 -0.209 3e-3 -0.035 0-0.107-3e-3 -0.114-3e-3 -9e-3 0-0.015 4e-3 -0.015 0.017 0 0.017 0.01 0.018 0.022 0.018h0.054s1e-3 3e-3 1e-3 7e-3c0 0.076-0.077 0.556-0.083 0.596h-0.042c-0.016 0-0.019 1e-3 -0.019 0.015z" fill-rule="nonzero"/>
                </g>
                <g transform="matrix(96.615 0 0 96.615 308.26 136.83)">
                    <path d="m0.022-0.138c0 0.077 0.047 0.149 0.143 0.149 0.128 0 0.232-0.125 0.232-0.249 0-0.063-0.033-0.162-0.141-0.162-0.135 0-0.234 0.115-0.234 0.262zm0.068-8e-3c0-0.087 0.078-0.225 0.155-0.225 0.07 0 0.083 0.059 0.083 0.093 0 0.09-0.066 0.259-0.161 0.259-0.075 0-0.077-0.084-0.077-0.127z" fill-rule="nonzero"/>
                </g>
                <g transform="matrix(96.615 0 0 96.615 348.74 136.83)">
                    <path d="m0.012-0.287c0 0.012 0.013 0.02 0.018 0.02 4e-3 0 0.07-0.064 0.092-0.064 7e-3 0 0.01 5e-3 0.01 0.015 0 0.066-0.047 0.257-0.06 0.311-1e-3 6e-3 1e-3 0.014 8e-3 0.014s0.028-2e-3 0.048-4e-3c0.013-1e-3 0.016-0.022 0.018-0.028 6e-3 -0.021 0.023-0.078 0.044-0.111 0.049-0.079 0.141-0.207 0.176-0.207 0.012 0 0.019 0.012 0.019 0.026 0 0.06-0.08 0.214-0.08 0.273 0 0.025 0.013 0.044 0.035 0.044 0.075 0 0.163-0.106 0.163-0.115 0-5e-3 -0.012-0.016-0.015-0.016-2e-3 0-0.062 0.076-0.09 0.076-0.013 0-0.016-0.01-0.016-0.017 0-0.026 0.077-0.219 0.077-0.272 0-0.018-7e-3 -0.047-0.054-0.047-0.078 0-0.157 0.102-0.242 0.25 0.021-0.079 0.048-0.17 0.048-0.226 0-0.018-0.014-0.024-0.024-0.024-0.061 0-0.175 0.096-0.175 0.102z" fill-rule="nonzero"/>
                </g>
                <g transform="matrix(96.615 0 0 96.615 398.5 136.83)">
                    <path d="m0.032-0.346c0 6e-3 5e-3 7e-3 0.011 7e-3h0.055c7e-3 0 6e-3 2e-3 6e-3 8e-3 0 7e-3 -0.053 0.281-0.053 0.299 0 0.024 0.013 0.037 0.038 0.037 0.062 0 0.183-0.142 0.183-0.148 0-4e-3 -0.014-0.016-0.017-0.016-2e-3 0-0.087 0.092-0.109 0.092-0.016 0-0.016-0.01-0.016-0.018s0.025-0.16 0.041-0.246c1e-3 -7e-3 3e-3 -8e-3 8e-3 -8e-3h0.078c8e-3 0 0.011-8e-3 0.013-0.025 1e-3 -6e-3 0-0.011-9e-3 -0.011h-0.076c-8e-3 0-8e-3 -3e-3 -7e-3 -7e-3 3e-3 -0.018 0.024-0.108 0.024-0.112 0-7e-3 -0.013-8e-3 -0.024-8e-3h-7e-3c-9e-3 0-0.015 0-0.021 1e-3 -0.016 2e-3 -0.019 7e-3 -0.021 0.02-3e-3 0.023-0.012 0.078-0.016 0.1-2e-3 7e-3 -2e-3 6e-3 -8e-3 6e-3h-0.061c-8e-3 0-0.011 7e-3 -0.011 0.01 0 4e-3 -1e-3 0.016-1e-3 0.019z" fill-rule="nonzero"/>
                </g>
                <g transform="matrix(96.615 0 0 96.615 425.94 136.83)">
                    <path d="m0.017-0.061c0 0.034 0.07 0.069 0.131 0.069 0.073 0 0.134-0.054 0.134-0.115 0-0.112-0.145-0.119-0.145-0.21 0-0.047 0.037-0.06 0.066-0.06 0.015 0 0.021 0.011 0.029 0.025 0.01 0.018 0.025 0.037 0.051 0.037 0.011 0 0.021-7e-3 0.021-0.02 0-0.012-0.01-0.067-0.1-0.067-0.072 0-0.134 0.054-0.134 0.119 0 0.086 0.144 0.131 0.144 0.189 0 0.043-0.031 0.07-0.068 0.07-0.023 0-0.033-0.016-0.057-0.04-0.013-0.013-0.022-0.025-0.045-0.025-9e-3 0-0.027 0.01-0.027 0.028z" fill-rule="nonzero"/>
                </g>
                <g transform="matrix(96.615 0 0 96.615 458.4 136.83)">
                    <path d="m0.022-6e-3c0 6e-3 3e-3 0.011 0.011 0.011 1e-3 0 0.057-1e-3 0.06-0.011l0.021-0.084c8e-3 -0.033 0.032-0.07 0.054-0.107 0.041-0.068 0.092-0.146 0.138-0.146 0.02 0 0.031 0.015 0.031 0.036 0 0.051-0.073 0.234-0.073 0.269 0 0.025 0.02 0.041 0.044 0.041 0.078 0 0.158-0.117 0.158-0.125 0-5e-3 -0.01-0.013-0.015-0.013s-0.071 0.087-0.095 0.087c-0.012 0-0.018-9e-3 -0.018-0.019 0-0.027 0.067-0.202 0.067-0.268 0-0.036-0.029-0.051-0.062-0.051-0.06 0-0.097 0.034-0.126 0.069-0.049 0.059-0.087 0.132-0.105 0.169 0.029-0.142 0.083-0.42 0.088-0.512 0-9e-3 0-0.018-9e-3 -0.018-0.025 0-0.116 0.02-0.156 0.034-7e-3 3e-3 -9e-3 0.015-9e-3 0.023 0 5e-3 1e-3 0.013 6e-3 0.013 6e-3 0 0.066-0.026 0.084-0.026 3e-3 0 5e-3 7e-3 4e-3 0.015-0.034 0.349-0.098 0.601-0.098 0.613z" fill-rule="nonzero"/>
                </g>
                <g transform="matrix(96.615 0 0 96.615 503.62 136.83)">
                    <path d="m0.022-0.282c0 7e-3 8e-3 0.016 0.015 0.016 9e-3 0 0.058-0.059 0.082-0.059 7e-3 0 9e-3 5e-3 9e-3 0.015 0 0.06-0.071 0.246-0.071 0.298 0 0.018 0.017 0.021 0.027 0.021 0.033 0 0.154-0.099 0.154-0.116 0-5e-3 -9e-3 -0.015-0.015-0.015-7e-3 0-0.062 0.064-0.079 0.064-0.01 0-0.01-6e-3 -0.01-0.017 0-0.027 0.065-0.238 0.065-0.286 0-0.019-0.012-0.025-0.023-0.025-0.038 0-0.154 0.094-0.154 0.104zm0.103-0.267c0 0.022 0.016 0.051 0.047 0.051 0.026 0 0.044-0.022 0.044-0.049 0-0.022-0.016-0.051-0.047-0.051-0.028 0-0.044 0.022-0.044 0.049z" fill-rule="nonzero"/>
                </g>
                <g transform="matrix(96.615 0 0 96.615 529.7 136.83)">
                    <path d="m7e-3 -0.224c0 6e-3 0.015 0.017 0.019 0.017 8e-3 0 0.078-0.112 0.109-0.112 7e-3 0 9e-3 5e-3 9e-3 0.015 0 0.065-0.02 0.183-0.078 0.516-3e-3 0.017-9e-3 0.02-0.018 0.02-5e-3 0-0.011-1e-3 -0.017-1e-3 -0.019 0-0.02 0-0.022 0.025-1e-3 0.012 9e-3 0.013 0.02 0.013 0.098 0 0.157 0.015 0.184 0.015 8e-3 0 0.013-6e-3 0.013-0.027 0-9e-3 -9e-3 -0.012-0.026-0.014-0.012-1e-3 -0.029-3e-3 -0.051-5e-3 -0.01-1e-3 -0.014-6e-3 -0.011-0.02l0.032-0.21c1e-3 -6e-3 4e-3 -5e-3 0.01-5e-3 8e-3 0 0.037 7e-3 0.056 7e-3 0.101 0 0.228-0.149 0.228-0.301 0-0.051-0.013-0.094-0.079-0.094-0.043 0-0.08 0.023-0.102 0.058-0.046 0.071-0.067 0.115-0.09 0.17 9e-3 -0.052 0.028-0.171 0.028-0.207 0-0.024-6e-3 -0.034-0.02-0.034-0.096 0-0.194 0.173-0.194 0.174zm0.177 0.173c0-0.028 0.023-0.082 0.055-0.143 0.026-0.048 0.066-0.145 0.116-0.145 0.032 0 0.041 0.028 0.041 0.061 0 0.105-0.085 0.256-0.151 0.256-0.03 0-0.061-5e-3 -0.061-0.029z" fill-rule="nonzero"/>
                </g>
            </g>
        
        
            <g transform="translate(-14.295 -63.009)">
                <g transform="matrix(6.1858 0 0 6.1858 24.938 11.126)" stroke="#000" stroke-width=".81px">
                    <rect x="1" y="3" width="15" height="13" fill="none"/>
                
                
                    <path d="m16 8h4l0.633 0.633c1.515 1.515 2.367 3.571 2.367 5.715v1.652h-7v-8z" fill-rule="nonzero"/>
                </g>
                <g transform="matrix(3.8821 0 0 3.8821 -376.46 -45.326)">
                    <rect x="130.32" y="29.096" width="5.436" height="4.157"/>
                </g>
                <g transform="translate(-194.56 -171.38)">
                    <path d="m268.03 281.48c0.62 1.672 0.958 3.48 0.958 5.366 0 8.535-6.929 15.465-15.464 15.465s-15.465-6.93-15.465-15.465c0-1.886 0.339-3.694 0.958-5.366h29.013z" stroke="#000" stroke-width="5px"/>
                </g>
                <g transform="matrix(6.1858 0 0 6.1858 25.574 1.028)">
                    <circle cx="18.5" cy="18.5" r="2.5" stroke="#000" stroke-width=".81px"/>
                </g>
            </g>
        </g>
    </g>
</svg>
