<?xml version="1.0" encoding="UTF-8"?>
<svg width="470.25" height="112.35" clip-rule="evenodd" fill-rule="evenodd" stroke-linecap="round" stroke-linejoin="round" version="1.1" viewBox="0 0 470.25 112.35" xml:space="preserve" xmlns="http://www.w3.org/2000/svg">
    <g id="truck"><path d="m9.5527-0.58594c-1.6043-2.8013e-4 -2.9425 1.226-3.082 2.8242l-7.0352 80.414c-0.15848 1.8082 1.2669 3.3637 3.082 3.3633h9.7266c-0.1365 0.6746-0.24964 1.3565-0.31055 2.0527-0.86377 9.8729 6.7133 18.184 16.602 18.184 9.8883 0 18.443-7.8754 19.307-17.748 0.07367-0.8421 0.07125-1.6702 0.0293-2.4883h45.428c-0.1381 0.67408-0.25347 1.3556-0.31445 2.0527-0.86434 9.8793 6.7127 18.189 16.607 18.189 9.8947 1e-5 18.45-7.8726 19.314-17.752 0.0917-1.0485 0.0677-2.0731-0.0234-3.0781h6.957v2e-3c0.55353 0.0121 0.79364 9e-3 1.4844 0.02734 2.0274 0.1067 3.3331 0.16015 3.9199 0.16016 0.32011 0 0.53393-0.0535 0.64063-0.16016 0.16005-0.10671 0.24023-0.24034 0.24023-0.40039 0.0533-0.2134 0.0801-0.55886 0.0801-1.0391 0-0.53352-0.0534-0.88099-0.16016-1.041-0.1067-0.16005-0.37397-0.24023-0.80078-0.24023h-0.10937l0.85937-9.8145c1.2177-13.919-3.1536-27.351-12.193-37.258l-3.5742-3.916c-0.4745-0.51985-1.1458-0.81614-1.8496-0.81641h-21.42l2.4629-28.154c0.15842-1.8075-1.2657-3.3625-3.0801-3.3633z" clip-rule="nonzero" color="#000000" color-rendering="auto" dominant-baseline="auto" fill-rule="nonzero" image-rendering="auto" shape-rendering="auto" solid-color="#000000" stop-color="#000000" style="font-feature-settings:normal;font-variant-alternates:normal;font-variant-caps:normal;font-variant-east-asian:normal;font-variant-ligatures:normal;font-variant-numeric:normal;font-variant-position:normal;font-variation-settings:normal;inline-size:0;isolation:auto;mix-blend-mode:normal;shape-margin:0;shape-padding:0;text-decoration-color:#000000;text-decoration-line:none;text-decoration-style:solid;text-indent:0;text-orientation:mixed;text-transform:none;white-space:normal"/></g><text id="Fontship" x="155.9481" y="85.475204" fill="#000000" font-family="sans-serif" font-size="96px" style="line-height:1.25" xml:space="preserve"><tspan x="155.9481" y="85.475204" font-family="Fanwood" font-size="96px" font-style="italic">Fontship</tspan></text>
<path id="cargo" d="m12.387 5.5996-6.4941 74.23h86.576l6.4941-74.23z" fill="#fff"/><g id="F" transform="matrix(.99364 0 0 .99364 -226.41 -65.76)">
                <text x="257.92401" y="136.834" font-family="FanwoodText-Italic, 'Fanwood Text'" font-size="80.539px" font-style="italic">F</text>
            </g></svg>
