<svg width="470.2" height="112.4" clip-rule="evenodd" fill-rule="evenodd" stroke-linecap="round" stroke-linejoin="round" version="1.1" viewBox="0 0 470.2 112.4" xmlns="http://www.w3.org/2000/svg"><path d="m9.553-.5859c-1.604-.0002801-2.942 1.226-3.082 2.824l-7.035 80.41c-.1585 1.808 1.267 3.364 3.082 3.363h9.727c-.1365.6746-.2496 1.356-.3106 2.053-.8638 9.873 6.713 18.18 16.6 18.18 9.888 0 18.44-7.875 19.31-17.75.07367-.8421.07125-1.67.0293-2.488h45.43c-.1381.6741-.2535 1.356-.3144 2.053-.8643 9.879 6.713 18.19 16.61 18.19 9.895 1e-5 18.45-7.873 19.31-17.75.0917-1.048.0677-2.073-.0234-3.078h6.957v.002c.5535.0121.7936.009 1.484.02734 2.027.1067 3.333.1602 3.92.1602.3201 0 .5339-.0535.6406-.1602.16-.1067.2402-.2403.2402-.4004.0533-.2134.0801-.5589.0801-1.039 0-.5335-.0534-.881-.1602-1.041-.1067-.16-.374-.2402-.8008-.2402h-.1094l.8594-9.814c1.218-13.92-3.154-27.35-12.19-37.26l-3.574-3.916c-.4745-.5198-1.146-.8161-1.85-.8164h-21.42l2.463-28.15c.1584-1.808-1.266-3.362-3.08-3.363z" clip-rule="nonzero" color="#000000" color-rendering="auto" dominant-baseline="auto" fill-rule="nonzero" image-rendering="auto" shape-rendering="auto" solid-color="#000000" stop-color="#000000" style="font-feature-settings:normal;font-variant-alternates:normal;font-variant-caps:normal;font-variant-east-asian:normal;font-variant-ligatures:normal;font-variant-numeric:normal;font-variant-position:normal;font-variation-settings:normal;inline-size:0;isolation:auto;mix-blend-mode:normal;shape-margin:0;shape-padding:0;text-decoration-color:#000000;text-decoration-line:none;text-decoration-style:solid;text-indent:0;text-orientation:mixed;text-transform:none;white-space:normal"/><g aria-label="Fontship"><path d="m157.9 84.04q0-.864.288-.96.288-.192 1.44-.192h4.128q7.968-49.82 7.968-57.5 0-.96-.288-.96h-5.28q-.672 0-1.056 0-.288-.096-.576-.384-.192-.384-.192-1.056 0-1.344 1.152-1.344l4.512.096q4.416.192 6.432.192 2.688 0 10.37-.096 7.776-.192 9.696-.192 4.704 0 5.568-.192t1.056-1.056q.096-1.152 1.248-1.152 1.056 0 1.344.192t.288.864q0 .384-.384 3.936t-.48 8.064q0 .576-.288.768t-1.248.192q-1.44 0-1.44-1.344 0-.192.288-3.456t.288-3.552q0-.672-22.75-.672-.48 0-3.936 25.92-.192.768-.096 1.152.192.288.384.384.192 0 1.056 0h14.98q4.32 0 4.512-1.248l.768-4.128q.096-.672 1.536-.672 1.248 0 1.248.576 0 .096-1.344 7.392-.288 1.344-.576 2.976-.192 1.536-.384 2.976-.192 1.344-.192 1.632-.096.672-1.248.672-1.632 0-1.632-.768.864-5.184.864-5.472 0-.768-.96-1.056t-3.84-.288h-13.73q-.864 0-1.152.096-.288 0-.48.192t-.288.672q-.192 1.248-1.824 12.58-1.536 11.23-1.92 14.21-.192.864.768.864h6.24q.768 0 .864.192.192.192.192 1.056 0 1.056-.192 1.344t-.864.288q-1.056 0-4.608-.192-3.456-.096-4.992-.096t-5.184.096q-3.648.192-4.704.192-.96 0-1.152-.288-.192-.192-.192-1.44z"/><path d="m208.4 72.23q0-10.56 6.336-17.66 6.336-7.2 15.84-7.2 6.816 0 9.984 4.8 3.264 4.8 3.264 10.46 0 9.024-6.528 16.32t-15.46 7.296q-6.432 0-9.984-4.032-3.456-4.128-3.456-9.984zm5.952-.768q0 12.48 7.68 12.48 4.416 0 8.16-4.512 3.84-4.608 5.664-10.27 1.92-5.76 1.92-10.37 0-3.456-1.824-6.336t-6.432-2.88q-5.472 0-10.37 7.584-4.8 7.488-4.8 14.3z"/><path d="m247.6 57.92q0-.192 2.784-2.496 2.88-2.304 7.008-4.608 4.128-2.4 6.72-2.4 2.016 0 2.016 2.016t-.576 5.28-1.152 5.472-1.92 7.008q-1.248 4.704-1.536 5.952 7.104-12.58 12.86-19.1 5.856-6.624 11.23-6.624 4.896 0 4.896 4.224 0 2.784-3.744 13.92-3.648 11.14-3.648 12.19 0 1.92 1.824 1.92 1.248 0 3.264-1.728 2.112-1.824 3.648-3.552 1.632-1.824 1.728-1.824.288 0 .672.48.48.384.48.576 0 .48-2.304 3.072-2.304 2.496-6.144 5.088-3.744 2.592-6.912 2.592-1.44 0-2.304-1.056-.768-1.152-.768-2.88 0-2.688 3.84-12.96t3.84-13.25q0-1.152-.576-1.92-.576-.864-1.536-.864-2.496 0-7.584 6.432-5.088 6.336-9.6 13.54-2.112 3.456-4.224 10.75-.672 2.4-1.44 2.496-3.84.384-4.608.384-.672 0-.48-.96 5.76-23.9 5.76-29.95 0-1.728-1.248-1.728-1.344 0-5.184 3.072l-3.744 3.072q-.288 0-.864-.48-.48-.48-.48-1.152z"/><path d="m299 52.26q0-.096 0-.864.096-.768.096-.96 0-.672.768-.672h5.856q.864 0 1.056-.768.96-5.28 1.536-9.696.192-.96.384-1.248.288-.288 1.344-.384.48-.096 2.016-.096 2.688 0 2.688.48 0 .096-.576 2.4-.48 2.304-1.056 4.992-.576 2.592-.672 3.36-.096.672 0 .864.192.096.96.096h7.008q.864 0 .864.768 0 2.112-1.248 2.112h-7.008q-.48 0-.672 0t-.384.192q-.096.096-.096.192t-.096.576q-3.936 21.12-3.936 23.71 0 2.016 1.824 2.016 1.056 0 3.552-2.112 2.496-2.208 4.608-4.32 2.208-2.208 2.304-2.208.192 0 .768.48.576.384.576.576 0 .384-3.072 3.744-2.976 3.36-7.296 6.816-4.32 3.36-6.912 3.36-3.36 0-3.36-3.264 0-.96 2.496-14.69 2.592-13.82 2.592-14.02t0-.384q.096-.48-.096-.576-.096-.096-.768-.096h-4.512q-1.536 0-1.536-.384z"/><path d="m324.8 79.62q0-1.056.768-1.728.864-.672 1.536-.672.48 0 .768.096.384 0 .768.192.384.096.576.192t.48.384q.384.288.48.384.192.096.576.576.384.384.48.48.48.48 1.248 1.344.768.768 1.056 1.152.384.288.96.768.576.384 1.152.576.576.096 1.248.096 2.88 0 4.8-1.92 2.016-1.92 2.016-5.088 0-1.92-2.208-4.224-2.112-2.304-4.704-4.032-2.592-1.824-4.8-4.512-2.112-2.688-2.112-5.376 0-4.512 3.744-7.776 3.744-3.36 8.832-3.36 2.976 0 4.992.768t2.88 1.92 1.152 2.016.288 1.44q0 1.632-1.728 1.632-2.784 0-4.608-3.36-1.44-2.592-3.072-2.592-2.592 0-4.608 1.44t-2.016 4.608q0 2.496 1.44 4.608 1.44 2.016 3.456 3.552 2.016 1.44 4.032 2.976 2.112 1.536 3.552 3.84t1.44 5.184q0 4.32-3.744 7.584-3.744 3.168-8.832 3.168-4.416 0-8.352-2.016-3.936-2.112-3.936-4.32z"/><path d="m357.5 84.9q0-.192.672-3.168.672-3.072 1.728-8.448 1.056-5.472 2.208-12.19 1.248-6.816 2.496-16.22 1.344-9.408 2.304-18.82.192-1.824-.384-1.824-.96 0-4.704 1.344l-3.648 1.248q-.288 0-.288-1.344 0-1.248.672-1.536 2.88-1.056 7.968-2.112 5.088-1.152 6.912-1.152.576 0 .576 1.44-.48 9.696-8.928 51.55 4.512-10.56 11.04-18.43 5.376-6.528 11.9-6.528 2.496 0 4.032 1.152 1.632 1.152 1.632 3.456 0 3.552-3.264 14.21-3.168 10.56-3.168 11.52 0 2.112 2.016 2.112 1.056 0 3.264-2.016 2.208-2.112 3.936-4.224 1.824-2.112 1.92-2.112.192 0 .672.384t.48.576q0 .48-2.112 3.264-2.112 2.688-5.856 5.568-3.648 2.88-6.912 2.88-1.728 0-2.88-.96-1.056-1.056-1.056-2.688 0-1.344 3.456-12.19 3.552-10.94 3.552-13.63 0-1.632-.864-2.688t-2.4-1.056q-3.168 0-6.432 3.84-3.168 3.84-7.104 10.27-4.416 7.392-5.184 10.37l-1.92 7.872q-.192 1.056-5.568 1.056-.768 0-.768-.768z"/><path d="m402.9 59.27q-.384-.48-.384-.864t2.784-2.688q2.88-2.4 6.432-4.704 3.648-2.304 5.28-2.304 1.92 0 1.92 2.112 0 2.496-3.168 14.4-3.072 11.9-3.072 13.06 0 1.92 1.248 1.92.768 0 2.592-1.536t3.36-3.072 1.632-1.536q.288 0 .672.48.48.48.48.672 0 1.152-6.24 6.048-6.144 4.8-8.256 4.8-2.304 0-2.304-1.728 0-2.304 3.36-13.92 3.456-11.62 3.456-14.69 0-1.728-1.152-1.728-1.056 0-2.976 1.44-1.824 1.44-3.36 2.88-1.44 1.344-1.536 1.344-.384 0-.768-.384zm9.504-26.5q0-1.92 1.056-3.168t2.88-1.248q1.92 0 3.072 1.44t1.152 3.168q0 1.92-1.152 3.168-1.056 1.248-2.784 1.248-1.92 0-3.072-1.44t-1.152-3.168z"/><path d="m427 63.88q.384-.672 1.056-1.728.672-1.152 2.784-3.936 2.208-2.784 4.224-4.896 2.112-2.208 4.896-3.936 2.88-1.824 5.376-1.824 1.632 0 1.632 2.976 0 2.016-.768 7.584t-1.536 10.18l-.768 4.608q4.128-10.27 9.6-18.62 3.552-5.472 9.504-5.472 4.224 0 5.76 2.304 1.536 2.208 1.536 6.432 0 10.56-7.104 19.58t-14.5 9.024q-1.056 0-3.072-.384-2.016-.288-2.304-.288-1.152 0-1.248.768l-3.072 20.06q-.48 2.208.864 2.304 1.536.192 3.84.384 1.344.096 1.824.096.576.096 1.056.192.576.192.672.384.192.288.192.672 0 1.344-.48 1.632-.384.384-1.44.384-.096 0-2.592-.384-2.496-.288-6.528-.672-3.936-.288-7.584-.288-1.632 0-1.632-.96 0-1.344.288-1.728.384-.384 1.536-.384h1.536q1.152 0 1.536-.384.384-.288.576-1.632 4.512-26.11 5.952-35.62 1.536-9.504 1.536-14.02 0-1.728-1.152-1.728-1.44 0-3.936 2.688t-4.512 5.376q-1.92 2.688-2.016 2.688-.384 0-.96-.48-.576-.576-.576-.96zm16.42 16.7q0 3.072 6.144 3.072 3.168 0 6.624-4.032 3.552-4.128 5.856-9.984t2.304-10.85q0-6.144-4.224-6.144-1.44 0-2.88.96-1.344.864-2.784 2.88-1.344 1.92-2.112 3.264-.768 1.248-2.112 3.936t-1.536 3.072q-5.28 10.08-5.28 13.82z"/></g><path d="m12.39 5.6-6.494 74.23h86.58l6.494-74.23z" fill="#fff"/><g transform="matrix(.593 0 0 .4334 -45.81 -7.998)"><g aria-label="F"><path transform="matrix(1.006 0 0 1.006 335.3 46.99)" d="m-36.55 33.81c-.7469 0-1.173.4009-1.279 1.201v.08008c-.05335.4802-1.815.7188-5.283.7188-1.067 0-3.761.05345-8.082.1602-4.268.05335-7.149.08008-8.643.08008-1.12 0-2.907-.02673-5.361-.08008l-3.762-.1602c-.8003 0-1.201.4544-1.201 1.361 0 .9603.588 1.44 1.762 1.44h4.32l.08008.5606c0 1.12-.2138 3.415-.6406 6.883-.3374 2.699-.7597 5.808-1.23 9.141h6.619c1.419-9.94 2.354-16.2 2.535-16.74 10.46 0 16.65.1604 18.57.4805-.2668 3.201-.4004 5.095-.4004 5.682v.4805c0 .05335.02675.187.08008.4004.05338.16.1068.267.1602.3203.1067 0 .2403.02673.4004.08008.2134.05335.452.08008.7188.08008.6402 0 1.041-.05345 1.201-.1602.2134-.16.3203-.454.3203-.8809.05335-1.6.1335-3.174.2402-4.721.1067-1.6.2136-2.855.3203-3.762s.1602-1.413.1602-1.52c0-.5335-.1069-.8542-.3203-.9609-.1601-.1067-.5877-.1602-1.281-.1602z" stroke-width=".9936"/></g></g></svg>
