<?xml version="1.0" encoding="UTF-8"?>
<svg width="470.25" height="112.35" clip-rule="evenodd" fill-rule="evenodd" stroke-linecap="round" stroke-linejoin="round" version="1.1" viewBox="0 0 470.25 112.35" xml:space="preserve" xmlns="http://www.w3.org/2000/svg" xmlns:cc="http://creativecommons.org/ns#" xmlns:dc="http://purl.org/dc/elements/1.1/" xmlns:rdf="http://www.w3.org/1999/02/22-rdf-syntax-ns#"><metadata><rdf:RDF><cc:Work rdf:about=""><dc:format>image/svg+xml</dc:format><dc:type rdf:resource="http://purl.org/dc/dcmitype/StillImage"/><dc:title/></cc:Work></rdf:RDF></metadata>
    <g id="truck"><path d="m9.5527-0.58594c-1.6043-2.8013e-4 -2.9425 1.226-3.082 2.8242l-7.0352 80.414c-0.15848 1.8082 1.2669 3.3637 3.082 3.3633h9.7266c-0.1365 0.6746-0.24964 1.3565-0.31055 2.0527-0.86377 9.8729 6.7133 18.184 16.602 18.184 9.8883 0 18.443-7.8754 19.307-17.748 0.07367-0.8421 0.07125-1.6702 0.0293-2.4883h45.428c-0.1381 0.67408-0.25347 1.3556-0.31445 2.0527-0.86434 9.8793 6.7127 18.189 16.607 18.189 9.8947 1e-5 18.45-7.8726 19.314-17.752 0.0917-1.0485 0.0677-2.0731-0.0234-3.0781h6.957v2e-3c0.55353 0.0121 0.79364 9e-3 1.4844 0.02734 2.0274 0.1067 3.3331 0.16015 3.9199 0.16016 0.32011 0 0.53393-0.0535 0.64063-0.16016 0.16005-0.10671 0.24023-0.24034 0.24023-0.40039 0.0533-0.2134 0.0801-0.55886 0.0801-1.0391 0-0.53352-0.0534-0.88099-0.16016-1.041-0.1067-0.16005-0.37397-0.24023-0.80078-0.24023h-0.10937l0.85937-9.8145c1.2177-13.919-3.1536-27.351-12.193-37.258l-3.5742-3.916c-0.4745-0.51985-1.1458-0.81614-1.8496-0.81641h-21.42l2.4629-28.154c0.15842-1.8075-1.2657-3.3625-3.0801-3.3633z" clip-rule="nonzero" color="#000000" color-rendering="auto" dominant-baseline="auto" fill-rule="nonzero" image-rendering="auto" shape-rendering="auto" solid-color="#000000" stop-color="#000000" style="font-feature-settings:normal;font-variant-alternates:normal;font-variant-caps:normal;font-variant-east-asian:normal;font-variant-ligatures:normal;font-variant-numeric:normal;font-variant-position:normal;font-variation-settings:normal;inline-size:0;isolation:auto;mix-blend-mode:normal;shape-margin:0;shape-padding:0;text-decoration-color:#000000;text-decoration-line:none;text-decoration-style:solid;text-indent:0;text-orientation:mixed;text-transform:none;white-space:normal"/></g><text id="Fontship" x="155.9481" y="85.475204" fill="#000000" font-family="sans-serif" font-size="96px" style="line-height:1.25" xml:space="preserve"><tspan x="155.9481" y="85.475204" font-family="Fanwood" font-size="96px" font-style="italic">Fontship</tspan></text>
<path id="cargo" d="m12.387 5.5996-6.4941 74.23h86.576l6.4941-74.23z" fill="#fff"/><g id="F" transform="matrix(.99364 0 0 .99364 -226.41 -65.76)">
                <text x="257.92401" y="136.834" font-family="FanwoodText-Italic, 'Fanwood Text'" font-size="80.539px" font-style="italic">F</text>
            </g><g id="airhorn" transform="matrix(.59298 0 0 .43345 -45.806 -7.9984)"><g aria-label="F"><path transform="matrix(1.0064 0 0 1.0064 335.3 46.992)" d="m-36.553 33.812c-0.74692 0-1.1726 0.4009-1.2793 1.2012v0.08008c-0.05335 0.48016-1.8154 0.71875-5.2832 0.71875-1.067 0-3.7606 0.05345-8.082 0.16016-4.2681 0.05335-7.1487 0.08008-8.6426 0.08008-1.1204 0-2.9072-0.02673-5.3613-0.08008l-3.7617-0.16016c-0.80026 0-1.2012 0.45436-1.2012 1.3613 0 0.96032 0.58799 1.4395 1.7617 1.4395h4.3203l0.08008 0.56055c0 1.1204-0.21382 3.415-0.64062 6.8828-0.33741 2.6993-0.75968 5.8078-1.2305 9.1406h6.6191c1.4189-9.9405 2.3535-16.199 2.5352-16.744 10.457 0 16.646 0.16036 18.566 0.48047-0.26676 3.2011-0.40039 5.0948-0.40039 5.6816v0.48047c0 0.05335 0.02675 0.18699 0.08008 0.40039 0.05338 0.16005 0.10683 0.26696 0.16016 0.32031 0.1067 0 0.24034 0.02673 0.40039 0.08008 0.21341 0.05335 0.45199 0.08008 0.71875 0.08008 0.64021 0 1.0411-0.05345 1.2012-0.16016 0.21341-0.16005 0.32031-0.45405 0.32031-0.88086 0.05335-1.6005 0.13354-3.1735 0.24023-4.7207 0.1067-1.6005 0.21361-2.8547 0.32031-3.7617s0.16016-1.4128 0.16016-1.5195c0-0.53351-0.1069-0.85424-0.32031-0.96094-0.16006-0.1067-0.58769-0.16016-1.2812-0.16016z" stroke-width=".99364"/></g></g></svg>
