<?xml version="1.0" encoding="UTF-8" standalone="no"?>
<svg
   width="470"
   height="120"
   clip-rule="evenodd"
   fill-rule="evenodd"
   stroke-linecap="round"
   stroke-linejoin="round"
   version="1.1"
   viewBox="0 0 470 120"
   xml:space="preserve"
   id="svg1"
   sodipodi:docname="logo-source.svg"
   inkscape:version="1.3.2 (091e20ef0f, 2023-11-25, custom)"
   xmlns:inkscape="http://www.inkscape.org/namespaces/inkscape"
   xmlns:sodipodi="http://sodipodi.sourceforge.net/DTD/sodipodi-0.dtd"
   xmlns="http://www.w3.org/2000/svg"
   xmlns:svg="http://www.w3.org/2000/svg"><defs
   id="defs1"><filter
     style="color-interpolation-filters:sRGB"
     inkscape:label="Drop Shadow"
     id="filter11"
     x="-0.014085221"
     y="-0.036512027"
     width="1.0217681"
     height="1.0622852"><feFlood
       result="flood"
       in="SourceGraphic"
       flood-opacity="0.800000"
       flood-color="rgb(255,255,255)"
       id="feFlood10" /><feGaussianBlur
       result="blur"
       in="SourceGraphic"
       stdDeviation="1.000000"
       id="feGaussianBlur10" /><feOffset
       result="offset"
       in="blur"
       dx="-2.000000"
       dy="-1.000000"
       id="feOffset10" /><feComposite
       result="comp1"
       operator="in"
       in="flood"
       in2="offset"
       id="feComposite10" /><feComposite
       result="comp2"
       operator="over"
       in="SourceGraphic"
       in2="comp1"
       id="feComposite11" /></filter><filter
     style="color-interpolation-filters:sRGB"
     inkscape:label="Drop Shadow"
     id="filter13"
     x="-0.030816287"
     y="-0.031822171"
     width="1.0476252"
     height="1.0542849"><feFlood
       result="flood"
       in="SourceGraphic"
       flood-opacity="0.800000"
       flood-color="rgb(255,255,255)"
       id="feFlood11" /><feGaussianBlur
       result="blur"
       in="SourceGraphic"
       stdDeviation="1.000000"
       id="feGaussianBlur11" /><feOffset
       result="offset"
       in="blur"
       dx="-2.000000"
       dy="-1.000000"
       id="feOffset11" /><feComposite
       result="comp1"
       operator="in"
       in="flood"
       in2="offset"
       id="feComposite12" /><feComposite
       result="comp2"
       operator="over"
       in="SourceGraphic"
       in2="comp1"
       id="feComposite13" /></filter></defs><sodipodi:namedview
   id="namedview1"
   pagecolor="#505050"
   bordercolor="#ffffff"
   borderopacity="1"
   inkscape:showpageshadow="0"
   inkscape:pageopacity="0"
   inkscape:pagecheckerboard="1"
   inkscape:deskcolor="#d1d1d1"
   inkscape:zoom="2.1095162"
   inkscape:cx="142.44972"
   inkscape:cy="116.61442"
   inkscape:window-width="1918"
   inkscape:window-height="1078"
   inkscape:window-x="0"
   inkscape:window-y="0"
   inkscape:window-maximized="1"
   inkscape:current-layer="truck" />
    <g
   id="truck"
   style="display:inline;filter:url(#filter13)"
   transform="translate(6,6)"><path
     id="path1"
     style="font-variant-ligatures:normal;font-variant-position:normal;font-variant-caps:normal;font-variant-numeric:normal;font-variant-alternates:normal;font-variant-east-asian:normal;font-feature-settings:normal;font-variation-settings:normal;text-indent:0;text-decoration-line:none;text-decoration-style:solid;text-decoration-color:#000000;text-transform:none;text-orientation:mixed;white-space:normal;shape-padding:0;shape-margin:0;inline-size:0;isolation:auto;mix-blend-mode:normal"
     d="M 9.5527344,-0.5859375 C 7.948436,-0.58621763 6.610203,0.64008285 6.4707031,2.2382812 L -0.56445312,82.652344 c -0.15847985,1.808198 1.26693306,3.363681 3.08203122,3.363281 h 9.7265629 c -0.1365,0.674599 -0.249637,1.356535 -0.310547,2.052734 -0.863769,9.872891 6.712872,18.183591 16.601562,18.183591 9.88829,0 18.442642,-7.875454 19.306641,-17.748044 0.07367,-0.842099 0.07125,-1.670182 0.0293,-2.488281 h 45.429687 c -0.1381,0.674079 -0.253473,1.355635 -0.314453,2.052734 -0.864339,9.87929 6.711179,18.189451 16.605469,18.189451 9.89469,10e-6 18.45045,-7.872561 19.31445,-17.751951 0.0917,-1.048499 0.0677,-2.073126 -0.0234,-3.078125 h 6.95703 v 0.002 c 0.55353,0.0121 0.79362,0.009 1.48438,0.02734 2.0274,0.1067 3.33312,0.160147 3.91992,0.160157 0.32011,0 0.53393,-0.0535 0.64063,-0.160157 0.16005,-0.10671 0.24023,-0.240341 0.24023,-0.40039 0.0533,-0.2134 0.0801,-0.558823 0.0801,-1.039063 0,-0.533519 -0.0534,-0.881006 -0.16016,-1.041016 -0.1067,-0.160049 -0.37397,-0.240234 -0.80078,-0.240234 h -0.10937 l 0.85937,-9.814453 c 1.2177,-13.918986 -3.15397,-27.350822 -12.19336,-37.257813 l -3.57422,-3.916015 c -0.4745,-0.51985 -1.14581,-0.816136 -1.84961,-0.816406 H 102.95709 L 105.41998,2.7773868 C 105.5784,0.96988856 104.1543,-0.5850945 102.3399,-0.5858945 Z M 12.386719,5.5996094 H 98.962891 L 92.46875,79.830078 H 5.8925781 Z" /></g><text
   id="Fontship"
   x="153.9481"
   y="91.475197"
   fill="#000000"
   font-family="sans-serif"
   font-size="96px"
   style="line-height:1.25;display:inline;filter:url(#filter11)"
   xml:space="preserve"><tspan
     x="153.9481"
     y="91.475197"
     font-family="Fanwood"
     font-size="96px"
     font-style="italic"
     id="tspan1">Fontship</tspan></text>
<path
   id="cargo"
   d="m 18.387,11.5996 -6.4941,74.23 h 86.576 l 6.4941,-74.23 z"
   fill="#ffffff"
   style="display:inline" /><g
   id="F"
   transform="matrix(0.99364,0,0,0.99364,-220.41,-59.76)"
   style="display:none">
                <text
   x="257.92401"
   y="136.834"
   font-family="FanwoodText-Italic, 'Fanwood Text'"
   font-size="80.539px"
   font-style="italic"
   id="text1">F</text>
            </g></svg>
